<?xml version="1.0" encoding="iso-8859-1"?>
<!-- Uploaded to: SVG Repo, www.svgrepo.com, Generator: SVG Repo Mixer Tools -->
<svg fill="#000000" height="800px" width="800px" version="1.1" id="Layer_1" xmlns="http://www.w3.org/2000/svg" xmlns:xlink="http://www.w3.org/1999/xlink" 
	 viewBox="0 0 101.974 101.974" xml:space="preserve">
<g>
	<g>
		<path d="M85.834,61.586c-0.771-1.93-2.53-2.444-3.546-4.053c-1.465-2.319,0.197-5.512-0.22-8.184
			c-0.259-1.659-1.051-3.331-2.275-4.509c-1.335-1.285-3.477-1.476-3.966-2.892c-0.535-1.551,0.659-3.404,0.021-5.125
			c-0.716-1.93-2.111-2.706-3.826-3.636c-1.154-0.625-2.631-0.473-3.41-1.857c-0.356-0.633,0.124-2.194,0.042-2.898
			c-0.745-6.452-8.315-9.269-13.231-6.067c-0.085-0.16-0.178-0.314-0.282-0.457c-1.743-2.407-4.096-2.582-6.206-1.627
			c-0.149-2.543-1.163-4.944-1.012-7.648c0.146-2.632,1.269-5.34,1.056-7.999c-0.289-3.597-3.686-5.234-7.12-4.435
			c-3.788,0.882-5.32,6.864-5.809,10.111c-0.419,2.779,0.349,5.876,0.868,8.578c0.228,1.188,0.468,1.938,0.866,2.518
			c-1.378-0.679-2.311-0.222-3.906,0.799c-1.587,1.016-4.65,2.978-4.753,5.052c-0.007,0.145,0.011,0.267,0.026,0.392
			c-3.521,0.307-6.771,1.743-8.49,5.303c-1.54,3.189-1.502,7.481,0.172,10.613c-1.994,3.137-4.58,4.731-5.031,9.009
			c-0.462,4.373,0.654,6.969,2.505,10.577c1.466,2.858-0.516,4.635-1.048,7.349c-0.326,1.657-0.185,3.513,0.238,5.142
			c0.831,3.199,3.025,5.74,6.256,6.66c0.504,0.144,1.537,0.008,1.935,0.281c1.276,0.875,0.463,0.589,0.877,1.989
			c0.485,1.643,0.532,3.259,1.433,4.79c0.974,1.654,2.562,2.883,4.151,3.894c1.464,0.931,3.82,1.389,5.045,2.472
			c1.169,1.034,1.56,2.661,2.909,3.654c1.293,0.951,2.887,1.422,4.453,1.674c3.306,0.532,7.14-0.374,9.916-2.318
			c0.671,1.535,2.278,2.622,4.037,3.026c3.748,0.861,5.794-1.093,8.809-2.81c0.493-0.28,1.088-0.681,1.604-0.87
			c0.328-0.791,0.826-0.877,1.495-0.259c0.167,0.022,0.334,0.045,0.501,0.067c1.719-0.042,2.962-0.265,4.14-1.671
			c1.501-1.791,1.992-3.916,1.132-5.819c3.95-2.273,8.385-6.074,9.422-10.562c0.456-1.973-0.019-3.382-0.673-5.217
			c-1.189-3.335,0.209-4.59,0.976-7.797C86.322,65.12,86.498,63.251,85.834,61.586z M73.36,44.856
			c0.727,0.757,1.725,1.183,2.655,1.749c0.081,0.165,0.07,0.302-0.099,0.379c-0.093,0.042-0.049,0.209,0.053,0.197
			c0.282-0.033,0.462-0.114,0.58-0.221c0.641,0.462,1.212,1.042,1.579,1.931c1.257,3.04-0.929,6.81,0.347,9.908
			c-0.14,0.074-0.281,0.14-0.421,0.215c-0.947-0.207-2.291,0.092-2.906,0.367c-0.252,0.113-0.493,0.246-0.725,0.391
			c-0.537,0.214-1.062,0.458-1.556,0.762c-0.314-0.034-0.634-0.092-0.963-0.19c-3.505-1.041-5.704-3.971-5.81-7.582
			c-0.029-1,0.132-2.002,0.438-2.955c0.159-0.045,0.221-0.221,0.131-0.366c0.217-0.585,0.475-1.153,0.817-1.673
			c0.33-0.353,0.662-0.686,0.993-0.969c1.349-1.153,2.938-2.174,4.684-1.991C73.225,44.819,73.292,44.842,73.36,44.856z
			 M72.529,74.387c-1.222,0.46-2.371,1.176-3.276,1.952c-1.728,1.484-2.858,3.629-2.739,5.949c-0.426,0.181-0.874,0.499-1.233,0.762
			c0.047-0.284,0.099-0.567,0.137-0.851c0.079-0.578-0.787-0.847-0.896-0.248c-0.039,0.214-0.074,0.419-0.112,0.629
			c-0.501-0.217-1.025-0.256-1.559-0.192c-0.84-0.283-1.712-0.448-2.573-0.442c-0.498,0.003-0.979,0.082-1.452,0.187
			c0.063-1.019,0.118-2.038,0.132-3.058c0.003-0.226-0.122-0.367-0.281-0.43c-0.074-0.486-0.174-0.952-0.278-1.359
			c-0.001-0.006-0.004-0.011-0.005-0.017c0.683-0.391,1.213-0.999,1.679-1.7c1.396-1.651,2.248-4.483,2.432-6.809
			c0.802,0.097,1.622,0.064,2.393-0.103c0.908-0.196,2.099-0.585,2.849-1.16c0.444-0.34,0.722-0.848,1.066-1.277
			c0.033-0.012,0.065-0.023,0.097-0.035c-0.064,0.472-0.091,0.954-0.044,1.45C69.106,70.173,70.454,72.844,72.529,74.387z
			 M72.38,72.468c0.705,0.603,1.537,1.081,2.445,1.416c-0.149,0.006-0.298,0.025-0.447,0.043
			C73.622,73.577,72.95,73.078,72.38,72.468z M45.846,82.641c-0.409-1.03-0.931-2.033-1.588-2.905
			c0.38-1.776,0.818-3.575,1.193-5.377c0.299-0.287,0.625-0.558,1.009-0.791c0.11-0.067,0.228-0.116,0.342-0.174
			c0.024,0.009,0.044,0.022,0.073,0.027c0.249,0.038,0.481,0.058,0.715,0.074c0.018,0.057,0.031,0.114,0.049,0.171
			c0.106,0.322,0.56,0.33,0.663,0c0.018-0.058,0.03-0.119,0.047-0.178c0.118-0.008,0.23,0,0.353-0.018
			c0.046-0.007,0.086-0.011,0.131-0.018c-0.326,4.365-0.876,8.711-1.289,13.07c-0.478,0.072-0.951,0.211-1.416,0.411
			C46.576,85.734,46.562,84.445,45.846,82.641z M42.608,78.1c-0.68-0.493-1.456-0.855-2.337-1.042
			c0.045-0.137,0.092-0.279,0.136-0.416c1.389-4.291,2.913-8.603,3.701-13.071c0.502,0.357,0.906,0.759,1.232,1.198
			c-0.03-0.008-0.06-0.017-0.09-0.025c-0.248-0.07-0.481,0.218-0.341,0.443c0.344,0.552,0.787,0.94,1.287,1.219
			c0.586,1.653,0.656,3.58,1.006,5.483c-0.488,0.166-0.957,0.382-1.4,0.65c0.144-0.824,0.268-1.646,0.353-2.465
			c0.024-0.236-0.341-0.232-0.367,0c-0.106,0.923-0.264,1.848-0.446,2.773c-0.076,0.056-0.154,0.107-0.228,0.167
			c-1.011,0.822-1.953,2.12-2.355,3.354C42.53,77.066,42.511,77.599,42.608,78.1z M33.674,61.621
			c1.325-1.334,2.347-3.066,2.664-4.806c0.063-0.346,0.123-0.708,0.179-1.078c0.597-2.018,0.532-4.146-0.172-6.236
			c-0.003-0.01-0.008-0.02-0.011-0.03c0.049-0.163,0.088-0.327,0.134-0.491c2.582-0.118,5.248-0.761,7.522,0.577
			c0.532,0.425,0.945,0.897,1.284,1.408c-0.072,0.131,0.037,0.328,0.198,0.337c0.007,0,0.013-0.002,0.02-0.002
			c0.633,1.105,0.928,2.403,1.112,3.919c0.211,1.732,0,3.886-0.969,5.401c-0.322,0.504-1.447,1.141-0.812,1.823
			c0.197,0.211,0.551,0.246,0.795,0.103c1.139-0.671,1.809-1.876,2.158-3.281c0.84-2.738,0.275-6.518-0.64-8.388
			c-0.004-0.009-0.01-0.016-0.015-0.025c0.26-0.134,0.52-0.275,0.794-0.405c0.545-0.258,1.094-0.258,1.644-0.158
			c0.533,0.926,1.265,1.758,2.218,2.44c0.665,0.477,1.326,0.769,1.982,0.93c-0.368,0.192-0.345,0.77,0.082,0.892
			c0.831,0.238,1.569,0.984,2.112,1.847c-0.289,2.083-1.855,4.444-2.83,5.654c-0.839,1.041-1.646,2.305-2.631,3.3
			c-1.002,0.312-2.039,0.483-2.99,0.374c-0.709-1.4-1.701-2.616-2.98-3.408c-0.062-0.038-0.128-0.063-0.191-0.099
			c0.002-0.014,0.005-0.028,0.007-0.042c0.057-0.43-0.519-0.642-0.69-0.314c-0.435-0.201-0.877-0.373-1.332-0.491
			c-0.355-0.327-0.749-0.594-1.174-0.768c0.389-1.401,0.755-2.809,1.093-4.225c0.075-0.316-0.375-0.53-0.539-0.227
			c-0.145,0.267-0.289,0.533-0.434,0.8c-0.082,0.152-0.001,0.277,0.117,0.327c-0.287,1.059-0.611,2.105-0.93,3.153
			c-1.024-0.12-2.078,0.313-3.046,0.593c-0.092,0.027-0.196,0.055-0.303,0.085c1.075-3.017,2.098-6.055,3.655-8.869
			c0.205-0.37-0.358-0.699-0.567-0.331c-1.707,3.019-3.048,6.3-4.333,9.595c-0.626,0.24-1.214,0.563-1.469,1.031
			C34.19,62.154,33.96,61.83,33.674,61.621z M34.013,71.861c-0.054,0.13-0.109,0.259-0.159,0.393
			c-0.791,2.105-2.031,4.306-3.668,6.094c0.482-1.482,1.15-2.937,1.548-3.957c0.785-2.008,1.534-4.016,2.379-5.99
			C34.272,69.533,34.163,70.698,34.013,71.861z M42.381,33.462c-0.116-0.51-0.779-0.324-0.836,0.113
			c-0.119,0.903-0.333,1.789-0.631,2.645c0.056-0.879-0.018-1.735-0.253-2.506c2.084-0.789,3.139-2.593,4.134-4.577
			c0.375,0.872,0.671,1.984,1.329,2.515c0.733,0.591,1.953,1.128,3.071,1.228c-0.021,0.534,0.294,1.132,0.412,1.606
			c0.321,1.295,0.464,2.605,0.37,3.893c-0.521,0.461-0.986,0.993-1.446,1.527c-0.072,0.084-0.095,0.227,0,0.308
			c0.084,0.137,0.168,0.274,0.251,0.411c0.061,0.244,0.44,0.14,0.377-0.104c-0.108-0.421,0.214-0.855,0.71-1.239
			c-0.111,0.662-0.284,1.316-0.547,1.956c-1.027,2.495-2.307,4.431-5.11,5.101c-0.775,0.185-1.828,0.385-2.888,0.47
			c-1.005-0.278-1.931-0.337-2.819-0.216c-0.154-0.051-0.312-0.098-0.447-0.167c-0.137-0.07-0.349,0.087-0.235,0.235
			c0.013,0.017,0.029,0.028,0.042,0.045c-0.781,0.18-1.546,0.487-2.329,0.887c-0.096-0.174-0.213-0.328-0.322-0.49
			c0.18-0.288,0.352-0.579,0.54-0.862c0.235-0.354-0.33-0.678-0.567-0.331c-0.144,0.211-0.276,0.43-0.416,0.644
			c-0.284-0.22-0.709-0.43-1.058-0.635c0.168-0.087,0.34-0.165,0.505-0.263C38.522,43.596,43.515,38.435,42.381,33.462z
			 M51.519,40.351c0.623-0.798,1.216-1.323,1.402-0.763c0.021,0.064,0.107,0.036,0.098-0.027c-0.123-0.904-0.725-0.807-1.371-0.399
			c0.003-0.262-0.026-0.539-0.047-0.812c0.391-0.148,0.746-0.247,0.99-0.276c0.748-0.09,1.512,0.04,2.204-0.04
			c0.123,0.063,0.237,0.136,0.369,0.189c0.665,0.269,1.581,0.589,2.48,0.781c0.594,0.332,1.232,0.564,1.915,0.395
			c0.186-0.046,0.251-0.195,0.233-0.339c0.517-0.153,0.85-0.461,1.204-0.8c-0.33,0.693-0.634,1.39-0.815,2.219
			c-0.514,2.361-0.229,4.307,1.178,6.308c0.181,0.258,0.361,0.484,0.542,0.695c-0.025,0.438-0.106,0.849-0.253,1.234
			c-0.216-0.088-0.513-0.007-0.577,0.248c-0.124,0.489-0.314,0.905-0.538,1.282c-0.354,0.297-0.782,0.574-1.303,0.828
			c-1.14,0.557-2.213,1.044-3.258,1.257c-1.37-0.1-2.769-0.615-3.894-1.436c0.228-0.087,0.367-0.37,0.146-0.574
			c-0.481-0.443-1.067-0.842-1.701-1.097c-0.586-0.967-0.938-2.21-1.02-3.454c0.001-0.178,0-0.356,0.012-0.536
			c0.025-0.385,0.069-0.823,0.131-1.275C50.565,42.801,51.257,41.55,51.519,40.351z M50.52,32.739
			c0.173-0.066,0.336-0.15,0.492-0.247c0.046,0.15,0.086,0.302,0.141,0.447c0.571,1.516,1.255,3.112,2.415,4.227
			c-0.679-0.018-1.367-0.039-2.002,0.206c-0.022,0.009-0.04,0.023-0.062,0.032c-0.166-1.163-0.436-2.346-0.612-3.35
			C50.81,33.59,50.694,33.142,50.52,32.739z M56.046,61.421c-0.247,0.387-0.538,0.749-0.846,1.084
			c-0.195-0.253-0.329-0.517-0.39-0.789c0.26-0.392,0.51-0.79,0.733-1.203c0.384-0.711,0.814-1.646,1.112-2.626
			c0.053,0.168,0.101,0.335,0.134,0.493c0.037,0.177,0.039,0.355,0.044,0.533c-0.111,0.016-0.222,0.031-0.333,0.047
			c-0.071,0.01-0.124,0.082-0.145,0.145C56.102,59.869,56.012,60.649,56.046,61.421z M48.952,48.954c-0.1,0.007-0.2,0.008-0.3,0.025
			c-0.772,0.131-1.403,0.62-2.037,1.096c-0.369-0.463-0.809-0.849-1.303-1.168c-0.332-0.285-0.69-0.54-1.063-0.776
			c1.096-0.417,2.263-1.146,3.34-2.054c0.166-0.114,0.332-0.232,0.495-0.363c0.102-0.082,0.191-0.181,0.287-0.27
			c-0.026,0.879,0.087,1.756,0.318,2.59C48.756,48.347,48.848,48.653,48.952,48.954z M36.204,42.444
			c-0.944,0.686-1.895,1.434-2.924,2.028c-0.12,0.052-0.237,0.103-0.358,0.103c0,0-0.001,0-0.002,0c0.404,0,0.814-1.168,1.231-1.789
			c1.774-2.639,2.877-5.609,5.061-7.971C39.621,37.671,38.608,40.696,36.204,42.444z M33.847,48.008
			c-2.566,4.25-4.501,8.88-6.666,13.328c-0.185,0.38-0.341,0.768-0.502,1.155c-0.88,0.027-1.701-0.11-2.574,0.138
			c-0.34,0.097-0.669,0.216-0.996,0.338c-0.197-0.075-0.391-0.164-0.582-0.271c0.744-1.396,1.543-2.748,2.196-4.005
			c1.474-2.839,3.198-5.525,4.73-8.33c0.696-1.274,1.423-2.484,2.176-3.677c0.014,0,0.031-0.001,0.045-0.004
			c0.167-0.03,0.331-0.076,0.495-0.121c0.006,0.133,0.086,0.27,0.218,0.316C32.978,47.084,33.457,47.493,33.847,48.008z
			 M28.766,60.25c1.829-3.818,3.383-7.774,5.454-11.47c0.017,0.022,0.025,0.05,0.049,0.067c0.003,0.002,0.006,0.003,0.008,0.005
			c0.033,0.022,0.055,0.055,0.1,0.061c0.009,0.001,0.018,0.001,0.027,0.003c0.264,0.542,0.448,1.135,0.59,1.72
			c-0.984,2.403-2.174,4.675-3.282,7.079c-0.522,1.132-0.981,2.298-1.426,3.47c-0.811,0.459-1.66,0.847-2.418,1.079
			C28.149,61.591,28.445,60.921,28.766,60.25z M33.734,55.825c0.557-1.093,1.07-2.229,1.539-3.384
			c0.01,0.16,0.027,0.333,0.028,0.477c0.005,0.908-0.021,1.815-0.141,2.692c-0.497,1.438-1.35,2.758-2.472,3.864
			c-0.234,0.23-0.54,0.476-0.873,0.724C32.396,58.717,33.009,57.25,33.734,55.825z M54.456,63.225
			c-0.142,0.122-0.285,0.242-0.426,0.348c-0.37,0.275-0.807,0.553-1.284,0.816c0.507-0.591,1.005-1.196,1.47-1.823
			C54.27,62.79,54.351,63.01,54.456,63.225z M35.34,62.816c-0.043,0.111-0.086,0.222-0.129,0.333c-0.152,0.091-0.3,0.184-0.463,0.27
			c-0.012-0.039-0.028-0.073-0.041-0.111C34.842,63.113,35.069,62.952,35.34,62.816z M34.657,76.391
			c0.571-1.213,0.508-2.653,0.638-3.99c0.125-0.303,0.251-0.606,0.382-0.909c0.748-1.73,1.393-3.889,0.678-5.752
			c-0.137-0.357-0.353-0.718-0.597-1.074c0.087-0.214,0.169-0.431,0.253-0.646c0.135-0.043,0.256-0.087,0.346-0.134
			c0.984-0.521,1.64-1.21,2.769-1.447c0.248-0.052,0.494-0.083,0.739-0.104c-1.394,4.332-2.998,8.59-4.59,12.864
			c-0.198,0.532-0.391,1.084-0.582,1.636c-0.104,0.02-0.21,0.035-0.314,0.057C34.476,76.726,34.577,76.561,34.657,76.391z
			 M37.149,72.838c1.283-3.466,2.449-6.969,3.485-10.511c0.335,0.017,0.668,0.056,0.999,0.131c0.534,0.459,0.971,1.01,1.58,1.397
			c-0.474,2.036-1.082,4.036-1.561,6.075c-0.562,2.391-1.518,4.615-2.295,6.931c-0.475-0.12-0.959-0.213-1.454-0.246
			c-0.654-0.043-1.328-0.022-2.003,0.045C36.282,75.382,36.679,74.108,37.149,72.838z M44.878,74.998
			c-0.333,1.404-0.708,2.806-1.076,4.202c-0.086-0.096-0.163-0.203-0.253-0.296C43.637,77.469,44.035,76.108,44.878,74.998z
			 M43.784,82.114c0.363,0.897,0.543,1.886,0.469,2.933c-0.118,1.674-0.757,2.985-1.656,4.207c0.151-1.221,0.316-2.59,0.373-2.895
			C43.236,84.941,43.509,83.528,43.784,82.114z M48.559,85.509c0.374-4.059,0.885-8.102,1.181-12.166
			c1.303-0.125,2.285-0.013,3.696,0.761c-0.368,2.664-0.809,5.326-0.904,8.014c-0.073,2.063-0.04,4.128-0.103,6.191
			c-0.386-0.344-0.808-0.654-1.308-0.88c-0.181-0.082-0.361-0.145-0.541-0.205c-0.717-0.483-1.433-0.706-2.143-0.748
			C48.491,86.091,48.537,85.754,48.559,85.509z M53.205,71.866c-1.066-0.288-2.211-0.444-3.345-0.419
			c0.015-0.291,0.043-0.582,0.055-0.873c0.024-0.573-0.865-0.572-0.891,0c-0.014,0.315-0.046,0.628-0.063,0.943
			c-0.091,0.01-0.183,0.009-0.273,0.022c0.102-1.423-0.115-2.9-0.57-4.285c1.042,0.064,1.826-0.193,2.532-0.705
			c1.667-0.486,3.31-1.389,4.475-2.315c0.938,1.103,2.368,2.021,3.523,2.598c0.486,0.462,1.017,0.875,1.594,1.211
			c0.228,0.133,0.469,0.241,0.715,0.339c-0.098,0.58-0.122,1.182-0.167,1.782c-0.086,0.52-0.19,1.035-0.344,1.532
			c-0.162,0.523-0.359,1.128-0.602,1.732c-0.47,0.932-1.054,1.867-1.763,2.645c-0.021,0.016-0.042,0.032-0.064,0.048
			C57.167,73.962,55.627,72.52,53.205,71.866z M69.09,65.295c-0.063-0.03-0.134-0.043-0.204-0.028
			c-0.125,0.026-0.231,0.055-0.328,0.085c-2.074,0.168-4.079,1.055-6.149,1.051c-0.03-0.146-0.061-0.293-0.102-0.42
			c-0.113-0.346-0.545-0.312-0.671,0c-0.046,0.115-0.081,0.234-0.12,0.351c-0.894-0.136-1.716-0.464-2.494-0.905
			c-0.452-0.475-0.856-0.99-1.195-1.504c-0.145-0.22-0.51-0.936-0.818-1.744c1.035-1.528,1.458-3.206,0.686-5.081
			c-0.169-0.41-0.395-0.905-0.673-1.395c-0.003-0.743-0.175-1.431-0.599-1.98c0.122,0.004,0.246,0.015,0.364,0.007
			c0.399-0.028,0.807-0.097,1.209-0.194c-0.122,0.338-0.183,0.691-0.131,1.066c0.013,0.095,0.159,0.104,0.2,0.026
			c0.216-0.41,0.399-0.841,0.57-1.277c1.154-0.391,2.204-1.063,2.794-1.998c0.901-0.719,1.474-1.685,1.705-2.75
			c0.469,0.317,0.972,0.557,1.549,0.754c-1.004,1.527-1.674,3.218-1.461,4.784c0.036,0.263,0.436,0.227,0.497,0
			c0.244-0.902,0.67-1.875,1.2-2.832c-0.428,3.29,0.743,6.761,3.583,8.625c1.001,0.657,2.09,1.137,3.208,1.429
			C70.461,62.415,69.514,63.77,69.09,65.295z M67.034,35.034c1.227,0.866,3.243,0.624,4.335,1.632
			c1.763,1.629,0.721,4.193,1.004,6.098c0.045,0.305,0.121,0.57,0.21,0.818c-2.376-0.15-4.627,1.437-6.038,3.461
			c-0.306,0.317-0.604,0.663-0.896,1.018c-0.127-0.344-0.358-0.526-0.803-0.731c-0.655-0.302-1.214-0.544-1.683-0.885
			c-0.133-0.722-0.404-1.434-0.815-2.091c-0.127-0.203-0.347-0.243-0.526-0.176c-0.606-2.918,0.874-9.349,4.31-10.031
			C66.359,34.462,66.645,34.76,67.034,35.034z M55.506,25.77c0.339-0.585,0.442-1.261,0.372-1.925
			c2.121,0.112,4.034-0.537,6.182,0.843c2.38,1.529,2.953,3.175,3.187,5.694c0.085,0.917,0.11,1.768,0.315,2.54
			c-0.978,0.151-1.871,0.561-2.68,1.447c-0.614,0.672-0.756,1.454-1.09,2.273c-0.119,0.291-0.246,0.933-0.373,0.933h-0.004
			c-1.408,0-2.664,0.166-3.999-0.008c-0.035-0.027-0.072-0.055-0.106-0.08c-0.671-0.481-1.399-0.845-2.095-1.285
			c-0.706-0.446-1.632-1.231-2.305-2.148c-0.134-0.283-0.263-0.571-0.386-0.867c-0.23-0.551-0.376-1.074-0.486-1.593
			c0.005-0.061,0.02-0.121,0.03-0.182c0.189-0.309,0.338-0.642,0.429-0.987c0.046-0.062,0.087-0.125,0.141-0.185
			c0.112-0.126,0.055-0.274-0.049-0.35c0.053-0.597-0.133-1.153-0.214-1.714c-0.045-0.315-0.115-0.521-0.191-0.68
			c0.009-0.047,0.017-0.094,0.027-0.141c0.021-0.008,0.041-0.015,0.066-0.026C53.56,26.746,54.655,27.24,55.506,25.77z
			 M33.705,25.713c0.055-0.089,0.048-0.173,0.013-0.243c1.293-1.227,3.076-2.298,4.752-2.263c0.433,0.009,0.63-0.325,0.601-0.66
			c0.364,0.218,0.783,0.438,1.305,0.689c0.098,0.047,0.254,0.017,0.275-0.112c0.393-2.349-1.054-4.906-1.377-7.324
			c-0.315-2.359-0.421-12.523,3.823-13.154c5.189-0.771,2.34,6.976,1.953,9.599c-0.517,3.497,0.052,7.335,1.178,10.672
			c0.37,1.096,1.985,1.267,2.416,0.16c1.487-0.238,3.28-0.496,3.435-0.195c0.608,1.184,0.749,1.719,0.652,1.929
			c-0.029,0.03-0.059,0.06-0.088,0.09c-0.339,0.157-1.324-0.553-1.705-0.34c-0.899,0.504-1.558-0.133-2.024,1.258
			c-0.303,0.905,2.073,5.431-1.307,3.795c-1.164-0.563-1.113-2.674-2.467-3.48c-0.497-0.296-1.238-0.13-1.516,0.398
			c-0.423,0.804-2.145,4.274-2.367,4.262c-2.299-0.123-1.11-3.331-0.778-4.354c0.226-0.694-0.371-1.325-1.034-1.358
			c-1.78-0.088-2.799,0.335-4.503,0.916c-0.619,0.211-1.548,0.736-2.046,0.912C33.182,26.517,33.455,26.119,33.705,25.713z
			 M31.178,29.038c1.956,0.06,4.865-0.935,6.718-1.48c-0.535,1.944-0.708,3.682,0.12,5.761c0.2,0.502,0.561,0.738,1.049,0.749
			c0.014,0.061,0.031,0.121,0.044,0.182c-0.12-0.063-0.27-0.06-0.393,0.07c-2.078,2.2-3.208,4.942-4.827,7.458
			c-0.72,1.119-1.443,2.215-2.161,3.31c-0.487,0.14-0.984,0.256-1.488,0.334c-0.888,0.062-1.806,0.01-2.643-0.116
			c3.093-4.83,6.057-9.741,9.174-14.556c0.246-0.38-0.347-0.713-0.6-0.351c-3.341,4.787-6.436,9.77-9.557,14.714
			c-0.586-0.145-1.252-0.388-1.849-0.74c0.636-0.951,1.267-1.891,1.905-2.784c2.917-4.078,5.71-8.243,8.585-12.349
			c0.243-0.347-0.324-0.672-0.567-0.331c-3.357,4.717-6.706,9.439-10.038,14.172c-0.079-0.279-0.205-0.55-0.421-0.804
			c-0.909-1.069-1.377-2.198-1.535-3.333c0.032-0.042,0.067-0.084,0.098-0.125c1.249-1.664,2.519-3.285,3.876-4.864
			C28.069,32.325,29.7,30.721,31.178,29.038z M24.41,45.706c-0.16-0.04-0.319-0.078-0.467-0.111
			c0.023-0.035,0.047-0.069,0.071-0.104C24.145,45.566,24.277,45.638,24.41,45.706z M29.933,28.8
			c0.11,0.055,0.254,0.076,0.382,0.112c-0.59,0.611-1.179,1.219-1.721,1.849c-1.494,1.738-3.042,3.436-4.471,5.228
			c-0.417,0.523-0.948,1.125-1.48,1.766C22.849,33.921,26.452,30.235,29.933,28.8z M19.445,57.306
			c-0.158-0.862-0.216-1.759-0.19-2.732c0.047-1.813,0.538-3.154,1.229-4.32c0.904-1.051,1.753-2.187,2.568-3.355
			c0.576-0.277,1.224-0.378,1.965-0.254c0.026,0.004,0.051,0.007,0.077,0.01c0.203-0.146,0.297-0.164,0.563-0.386
			c0.01,0.004,0.021,0.009,0.031,0.013c0.05,0.02,0.104,0.031,0.155,0.051c-0.303,0.478-0.604,0.959-0.908,1.435
			c-1.606,2.518-2.824,5.253-4.374,7.803C20.206,56.155,19.819,56.728,19.445,57.306z M22.211,54.561
			c1.417-2.517,2.686-5.077,4.265-7.502c0.095-0.146,0.187-0.294,0.281-0.44c0.972,0.235,1.993,0.3,3.009,0.225
			c0.287-0.002,0.568-0.017,0.846-0.037c-0.82,1.273-1.628,2.557-2.402,3.896c-1.827,3.161-3.693,6.264-5.348,9.523
			c-0.316,0.623-0.675,1.263-1.036,1.917c-0.345-0.47-0.738-0.9-1.072-1.44c-0.452-0.732-0.784-1.458-1.021-2.202
			C20.541,57.179,21.45,55.911,22.211,54.561z M23.586,78.302c-0.371-0.192-0.753-0.467-1.162-0.875
			c-1.737-1.729-2.131-4.933-1.534-7.185c0.517-1.949,1.804-3.639,1.764-5.66c0.106-0.024,0.212-0.048,0.316-0.081
			c0.355,0.108,0.726,0.194,1.124,0.235c0.563,0.059,1.157,0.022,1.756-0.058c-0.396,1.154-0.764,2.319-1.195,3.466
			c-0.598,1.59-1.87,3.238-1.482,5.012c0.062,0.283,0.552,0.306,0.595,0c0.252-1.806,1.372-3.443,1.971-5.16
			c0.415-1.19,0.825-2.357,1.257-3.513c0.557-0.11,1.103-0.231,1.617-0.322c0.201-0.036,0.401-0.079,0.601-0.122
			c-0.469,1.265-0.945,2.526-1.48,3.757c-1.239,2.854-2.647,5.618-3.591,8.591C23.949,76.996,23.74,77.644,23.586,78.302z
			 M29.01,79.496c-0.053,0.046-0.103,0.097-0.157,0.142c-0.503-0.259-1.084-0.437-1.733-0.598c-0.975-0.242-1.768-0.228-2.54-0.394
			c1.122-4.248,4.901-12.396,5.305-13.416c0.202-0.51,0.394-1.022,0.589-1.534c0.484-0.164,0.957-0.364,1.402-0.635
			c0.169-0.103,0.332-0.224,0.497-0.341c1.118,0.506,1.15,1.399,1.288,2.776c0.041,0.407,0.099,0.793,0.163,1.179
			c-0.269,0.665-0.542,1.325-0.822,1.978c-1.128,2.625-2.205,5.369-3.104,8.082C29.622,77.57,29.244,78.529,29.01,79.496z
			 M39.721,92.337c-0.193,0.072-0.391,0.113-0.587,0.162c-0.792-0.55-1.625-0.787-3.311-1.555c-2.4-1.091-4.784-2.805-5.309-5.556
			c-0.229-1.199,0.371-2.674-0.007-3.793c-0.132-0.393-0.303-0.714-0.502-0.989c1.056-0.457,2.108-1.156,2.99-2.01
			c0.219,0.014,0.433,0.019,0.633-0.005c0.171-0.021,0.336-0.047,0.503-0.071c-0.579,1.798-1.107,3.633-1.518,5.393
			c-0.37,1.583-1.017,3.517,0.216,4.801c0.148,0.154,0.366-0.01,0.333-0.194c-0.471-2.658,0.714-5.359,1.515-7.835
			c0.254-0.786,0.491-1.571,0.724-2.355c0.587-0.084,1.179-0.148,1.809-0.143c0.602,0.005,1.157,0.052,1.688,0.126
			c-0.684,2.287-1.273,4.6-1.913,6.899c-0.661,2.372-1.003,3.59-0.324,5.947c0.097,0.337,0.649,0.286,0.629-0.085
			c-0.22-4.102,1.182-8.535,2.513-12.59c0.46,0.111,0.901,0.245,1.308,0.431c0.896,0.571,1.639,1.342,2.186,2.24
			c-0.176,0.702-0.347,1.403-0.5,2.101c-0.451,2.057-1.453,4.793-1.377,7.137C40.734,90.961,40.121,91.593,39.721,92.337z
			 M52.768,95.833c-1.685,0.903-4.407,1.454-6.159,1.466c-3.053,0.02-4.086-1.091-5.859-3.22c-0.133-0.16-0.248-0.285-0.368-0.42
			c0.312-0.27,0.607-0.54,0.848-0.78c0.261-0.169,0.514-0.361,0.76-0.563c0.119,0.03,0.247,0.01,0.341-0.1l0.361-0.422
			c0.048-0.056,0.068-0.122,0.072-0.188c0.333-0.333,0.645-0.674,0.914-1.007c0.342-0.423,0.657-0.814,0.949-1.192
			c0.035-0.022,0.07-0.044,0.105-0.065c0.858-0.436,1.751-0.757,2.624-0.933c-0.186,1.86-0.441,5.178,1.615,5.414
			c0.242,0.028,0.347-0.366,0.126-0.466c-1.181-0.533-1.122-2.969-0.893-5.068c0.505-0.044,0.999-0.038,1.465,0.04
			c0.457,0.246,0.923,0.61,1.405,1.152c0.516,0.58,0.902,1.163,1.195,1.784c-0.008,0.114-0.003,0.223-0.007,0.336
			c-0.002,0.084-0.004,0.169-0.005,0.255c-0.001,0.132-0.009,0.266-0.003,0.395c0.007,1.127,0.135,2.29,0.58,3.105
			C52.813,95.515,52.791,95.675,52.768,95.833z M53.46,80.3c0.098-1.946,0.371-3.88,0.615-5.815
			c1.244,0.756,2.202,1.555,2.921,2.572c-0.196,0.138-0.397,0.268-0.608,0.376c-0.151,0.077-0.072,0.301,0.083,0.306
			c0.258,0.008,0.49-0.02,0.719-0.053c0.331,1.359,0.629,3.437-0.005,4.722c-0.043,0.083-0.039,0.179-0.01,0.266
			c-1.608,0.752-2.931,2.05-3.705,3.672C53.445,84.331,53.359,82.312,53.46,80.3z M66.604,91.07
			c-0.269,1.213-0.619,2.411-1.042,3.574c-0.031,0.086-0.149,0.601-0.278,1.2c-3.229,2.144-6.328,3.859-9.759,0.175
			c-0.146-0.157-0.358-0.227-0.569-0.222c-0.049-0.039-0.107-0.064-0.16-0.099c0.003-0.042,0.006-0.083,0.009-0.125
			c0.01-0.13-0.077-0.219-0.182-0.275c0.081-1.049-0.005-2.205-0.172-3.188c-0.137-0.806-0.397-1.572-0.774-2.262
			c0.113-0.579,0.254-1.148,0.396-1.684c0.508-1.908,1.79-3.439,3.43-4.273c-0.358,4.361-0.489,9.987,1.528,9.405
			c0.19-0.055,0.227-0.319,0.055-0.421c-1.316-0.78-0.632-4.003-0.588-5.259c0.049-1.396,0.151-2.791,0.247-4.185
			c0.16-0.043,0.317-0.096,0.481-0.126c-0.198,0.196-0.208,0.572,0.141,0.642c0.653,0.131,1.351,0.29,2.019,0.213
			c0.585-0.068,1.037-0.342,1.534-0.434c0.432,0.174,0.826,0.386,1.191,0.622c-0.525,3.296-0.744,6.304,0.069,9.805
			c0.083,0.357,0.553,0.233,0.591-0.08c0.227-1.892-0.366-3.719-0.283-5.621c0.05-1.163,0.243-2.313,0.453-3.461
			c0.132,0.122,0.262,0.244,0.38,0.376c0.676,1.147,1.186,2.655,1.469,3.763C66.812,89.751,66.753,90.401,66.604,91.07z
			 M70.355,93.919c-1.321,0.271-1.723-0.101-2.741,0.419c0.156-0.326,0.284-0.676,0.339-1.099c0.092-0.707,0.536-1.75,0.538-2.391
			c0.001-0.162,0.08-0.236,0.055-0.419c-0.048-0.345-0.208-0.841-0.378-1.323c-0.001-0.772-0.116-1.536-0.406-2.285
			c-0.324-0.836-0.837-1.582-1.457-2.239c-0.186-0.327-0.388-0.629-0.6-0.907c0.16-0.083,0.313-0.177,0.442-0.26
			c0.159-0.102,0.32-0.21,0.485-0.307c0.095,0.437,0.224,0.848,0.412,1.217c0.773,2.772,3.208,5.19,5.977,5.958
			C72.606,91.964,73.141,93.348,70.355,93.919z M70.706,87.298c0.136,0.031,0.273,0.059,0.402,0.122
			c0.298,0.146,0.483,0.424,0.58,0.731c0.009,0.03,0.026,0.052,0.041,0.075c-0.266-0.176-0.531-0.37-0.794-0.614
			c-0.031-0.029-0.063-0.06-0.094-0.089C70.802,87.445,70.747,87.376,70.706,87.298z M80.465,81.67
			c-0.649,1.067-1.673,2.05-2.483,3.003c-1.146,1.347-2.267,2.628-3.218,4.083c-0.378-0.071-0.767,0.081-1.079,0.335
			c-0.605-0.181-1.188-0.394-1.754-0.736c0.181,0.018,0.38-0.125,0.322-0.359c-0.115-0.469-0.378-0.906-0.826-1.121
			c-0.314-0.151-0.691-0.188-0.955,0.029c-0.293-0.471-0.617-0.925-0.97-1.391c-0.898-1.187-1.465-2.394-1.527-3.651
			c0.087-1.752,0.938-3.337,2.213-4.519c1.188-1.029,2.709-1.748,4.2-1.982c1.358,0.455,2.861,0.517,4.355,0.374
			c0.461,0.135,0.841,0.302,1.061,0.505c0.189,0.173,0.518-0.051,0.368-0.284c-0.089-0.139-0.17-0.259-0.251-0.371
			c0.316-0.051,0.621-0.12,0.93-0.183C81.313,77.583,81.656,79.712,80.465,81.67z M81.6,68.046c-0.95,2.488-1.336,3.887-0.985,6.122
			c-0.872,0.065-1.746,0.195-2.618,0.26c-0.04-0.012-0.081-0.025-0.122-0.037c0.198-0.004,0.395-0.006,0.595-0.024
			c0.302-0.028,0.429-0.516,0.078-0.576c-4.128-0.696-8.984-3.703-6.954-8.506c0.54-1.276,1.264-2.536,2.198-3.572
			c0.019-0.011,0.037-0.021,0.056-0.033c1.774,0.053,3.527-0.429,5.051-1.521c0.074,0.054,0.197,0.031,0.191-0.086
			c-0.001-0.019-0.007-0.034-0.008-0.052c0.049-0.037,0.098-0.075,0.148-0.112c0.437,0.393,0.952,0.673,1.398,1.094
			C83.08,63.319,82.713,65.132,81.6,68.046z"/>
	</g>
</g>
</svg>