<?xml version="1.0" encoding="UTF-8"?>
<svg id="Layer_1" data-name="Layer 1" xmlns="http://www.w3.org/2000/svg" version="1.1" viewBox="0 0 800 800">
  <defs>
    <style>
      .cls-1 {
        fill: #000;
      }

      .cls-1, .cls-2, .cls-3 {
        stroke-width: 0px;
      }

      .cls-2 {
        fill: #a8d626;
      }

      .cls-3 {
        fill: #ff8400;
      }
    </style>
  </defs>
  <g>
    <g>
      <circle class="cls-3" cx="400" cy="492.2" r="296.9"/>
      <path class="cls-1" d="M400,800c-169.8,0-307.8-138.1-307.8-307.8S230.3,184.3,400,184.3s307.8,138.1,307.8,307.9c0,169.8-138.1,307.8-307.8,307.8ZM400,206.1c-157.7,0-286,128.3-286,286s128.3,286,286,286,286-128.3,286-286c0-157.7-128.3-286-286-286Z"/>
    </g>
    <path class="cls-1" d="M166.4,495.4h-21.8c0-145.5,116.2-258.6,254.4-258.6v21.8c-130.9,0-232.6,105.9-232.6,236.8Z"/>
  </g>
  <g>
    <g>
      <path class="cls-2" d="M413.4,148.3S432.6-1,589.9,11.7c0,0-22.6,158.9-176.6,136.6Z"/>
      <path class="cls-1" d="M441.9,161.4c-9.7,0-19.8-.8-30.1-2.3l-10.6-1.5,1.4-10.7c.2-1.5,20.7-146.9,168.8-146.9s12.9.3,19.5.8l11.6.9-1.6,11.5c-.2,1.5-22.7,148.2-158.8,148.2ZM426.3,138.8c56.8,5,99.7-16.3,128-62.8,12.6-20.6,19.2-41.5,22.3-54.1-1.8,0-3.5,0-5.3,0-107.8,0-137.7,85.9-145.1,117Z"/>
    </g>
    <g>
      <path class="cls-2" d="M386.6,148.3S367.4-1,210.1,11.7c0,0,22.6,158.9,176.6,136.6Z"/>
      <path class="cls-1" d="M358.1,161.4h0c-136.1,0-158.6-146.7-158.8-148.2l-1.6-11.5,11.6-.9c6.6-.5,13.1-.8,19.5-.8,148.1,0,168.6,145.5,168.8,146.9l1.4,10.7-10.6,1.5c-10.3,1.5-20.5,2.3-30.1,2.3ZM223.3,21.9c3.1,12.6,9.7,33.5,22.3,54.1,25.7,42.2,63.5,63.5,112.4,63.5h0c5.1,0,10.3-.2,15.6-.7-7.3-31.1-37.3-117-145.1-117s-3.5,0-5.3,0Z"/>
    </g>
  </g>
</svg>